<?xml version="1.0" encoding="iso-8859-1"?>
<!-- Generator: Adobe Illustrator 19.0.0, SVG Export Plug-In . SVG Version: 6.00 Build 0)  -->
<svg version="1.1" id="Capa_1" xmlns="http://www.w3.org/2000/svg" xmlns:xlink="http://www.w3.org/1999/xlink" x="0px" y="0px"
	 viewBox="0 0 512 512" style="enable-background:new 0 0 512 512;" xml:space="preserve">
<path style="fill:#FFE477;" d="M416.349,38.707h-40.008v15.574c0,8.601,6.973,15.574,15.574,15.574h55.582l0,0
	C447.497,52.652,433.552,38.707,416.349,38.707z"/>
<path style="fill:#FFB655;" d="M396.342,54.281V38.707h-20v15.574c0,8.601,6.973,15.574,15.574,15.574h20
	C403.314,69.854,396.342,62.882,396.342,54.281z"/>
<path style="fill:#57565C;" d="M422.272,39.276v30.578h25.225C447.497,54.678,436.641,42.043,422.272,39.276z"/>
<path style="fill:#F072AE;" d="M407.165,38.707v-0.03c0-17.219-13.958-31.177-31.177-31.177l0,0c-26.631,0-48.22,21.589-48.22,48.22
	v162.029c0,16.601-13.457,30.058-30.058,30.058l0,0c5.391-9.82,8.462-21.092,8.462-33.085l0,0c0-38.03-30.829-68.859-68.859-68.859
	h-6.708c-76.059,0-137.718,61.658-137.718,137.718l0,0h92.05c0,14.775,11.978,26.753,26.753,26.753s26.753-11.978,26.753-26.753
	h63.001c34.296,0,62.099-27.803,62.099-62.099V76.808c0-3.841,3.113-6.954,6.954-6.954h21.42c-8.601,0-15.574-6.973-15.574-15.574
	V38.707H407.165z"/>
<g>
	<path style="fill:#FF3F62;" d="M317.71,247.807c16.601,0,30.058-13.457,30.058-30.058V55.72c0-22.811,15.845-41.909,37.125-46.923
		c-2.822-0.84-5.809-1.298-8.905-1.298l0,0c-26.631,0-48.22,21.589-48.22,48.22v162.029c0,5.432-1.448,10.523-3.969,14.92
		C322.362,237.997,320.309,243.072,317.71,247.807z"/>
	<path style="fill:#FF3F62;" d="M204.936,283.581h-20c0,14.775,11.978,26.753,26.753,26.753c3.537,0,6.91-0.693,10-1.939
		C211.869,304.432,204.936,294.819,204.936,283.581z"/>
	<path style="fill:#FF3F62;" d="M242.708,146.093c-1.782-0.138-3.578-0.23-5.396-0.23h-6.708
		c-76.059,0-137.718,61.658-137.718,137.718l0,0h20l0,0C112.887,210.172,170.324,150.186,242.708,146.093z"/>
</g>
<g>
	<path style="fill:#FFE477;" d="M268.171,504.5h-68.981V310.333h25V479.5h18.981C256.977,479.5,268.171,490.693,268.171,504.5
		L268.171,504.5z"/>
	<path style="fill:#FFE477;" d="M224.189,357.91v25h55.314v43.981c13.807,0,25-11.193,25-25V357.91H224.189z"/>
	<path style="fill:#FFE477;" d="M116.021,361.571c-4.073,4.073-4.894,10.485-1.724,15.527c2.333,3.711,6.55,5.812,10.933,5.812
		h73.958v-25h-44.151l44.151-44.151v-3.425h1.419l-16.675-16.675L116.021,361.571z"/>
</g>
<g>
	<rect x="199.19" y="310.33" style="fill:#FFB655;" width="13" height="194.17"/>
	<rect x="224.19" y="357.91" style="fill:#FFB655;" width="15" height="25"/>
	<path style="fill:#FFB655;" d="M294.503,382.91h-15v43.981c5.628,0,10.822-1.861,15-5V382.91z"/>
	<path style="fill:#FFB655;" d="M129.297,377.098c-3.17-5.042-2.349-11.454,1.724-15.527l60.412-60.412l-7.5-7.5l-67.912,67.912
		c-4.073,4.073-4.894,10.485-1.724,15.527c2.333,3.711,6.55,5.812,10.933,5.812h15C135.847,382.91,131.63,380.809,129.297,377.098z"
		/>
</g>
<g>
	<rect x="338.44" y="85.02" style="fill:#FFFFFF;" width="15" height="15"/>
	<rect x="338.44" y="110.02" style="fill:#FFFFFF;" width="15" height="15"/>
	<rect x="338.44" y="135.02" style="fill:#FFFFFF;" width="15" height="68.23"/>
</g>
<g>
	<path style="fill:#1D1D1F;" d="M416.35,31.207h-2.415C410.443,13.444,394.759,0,375.988,0c-30.724,0-55.72,24.996-55.72,55.72
		v162.029c0,7.663-3.841,14.446-9.699,18.524c2.047-6.972,3.103-14.24,3.103-21.552c0-42.104-34.254-76.359-76.359-76.359h-6.708
		c-77.558,0-141.11,61.116-145.026,137.718H57.003v15h118.901l-65.187,65.187c-6.643,6.642-7.782,16.85-2.771,24.822
		c3.614,5.749,10.237,9.32,17.283,9.32h66.458V512h83.981v-7.5c0-17.92-14.58-32.5-32.5-32.5h-11.481v-81.59h40.314v43.981h7.5
		c17.92,0,32.5-14.58,32.5-32.5V350.41h-80.314v-39.044c6.681-4.823,11.565-11.987,13.426-20.285h56.328
		c38.377,0,69.599-31.222,69.599-69.599V77.354h83.956v-7.5C454.997,48.544,437.66,31.207,416.35,31.207z M191.688,350.41h-18.544
		l18.544-18.545V350.41z M125.23,375.41c-1.935,0-3.691-0.883-4.584-2.303c-1.262-2.008-0.983-4.571,0.678-6.233l62.608-62.609
		l7.071,7.071l-54.073,54.073h54.757v10H125.23V375.41z M297.003,365.41v36.481c0,6.967-4.092,12.997-10,15.81V375.41h-55.314v-10
		H297.003z M216.688,487h26.481c6.967,0,12.997,4.092,15.81,10h-52.292V317.833h10L216.688,487L216.688,487z M356.041,76.808
		v144.674c0,30.106-24.493,54.599-54.599,54.599h-56.338c-3.43-15.29-17.105-26.752-33.415-26.752v15
		c10.616,0,19.252,8.637,19.252,19.252c0,10.616-8.637,19.253-19.252,19.253c-10.616,0-19.253-8.637-19.253-19.253v-7.5H100.6
		c3.896-68.328,60.718-122.718,130.004-122.718h6.708c33.834,0,61.359,27.525,61.359,61.359c0,10.302-2.606,20.495-7.537,29.476
		l-0.173,0.314c-3.081,5.537-6.985,10.554-11.617,14.912l10.277,10.926c4.844-4.556,9.04-9.7,12.536-15.315
		c18.619-2.209,33.109-18.082,33.109-37.285V55.72c0-22.453,18.267-40.72,40.72-40.72c10.446,0,19.327,6.802,22.463,16.207h-29.609
		V54.28c0,2.843,0.52,5.566,1.465,8.083C362.424,62.466,356.041,68.902,356.041,76.808z M383.842,54.28v-8.073h30.93v16.147h-22.857
		C387.464,62.354,383.842,58.732,383.842,54.28z M429.772,62.354v-11.94c4.161,2.882,7.367,7.051,9.006,11.94H429.772z"/>
	<path style="fill:#1D1D1F;" d="M273.953,215.131h15c0-26.256-21.361-47.616-47.617-47.616h-26.319
		c-48.376,0-87.733,39.357-87.733,87.733v7.5h53.608v-15h-38.225c0.376-3.655,1.035-7.226,1.934-10.701h55.578v-15h-49.865
		c2.059-3.997,4.482-7.776,7.218-11.302h61.312v-15h-45.59c11.828-8.326,26.231-13.23,41.763-13.23h26.319
		C259.322,182.515,273.953,197.146,273.953,215.131z"/>
	<rect x="211.69" y="222.05" style="fill:#1D1D1F;" width="15" height="15"/>
	<rect x="236.69" y="222.05" style="fill:#1D1D1F;" width="15" height="15"/>
	<rect x="261.69" y="222.05" style="fill:#1D1D1F;" width="15" height="15"/>
</g>
<g>
</g>
<g>
</g>
<g>
</g>
<g>
</g>
<g>
</g>
<g>
</g>
<g>
</g>
<g>
</g>
<g>
</g>
<g>
</g>
<g>
</g>
<g>
</g>
<g>
</g>
<g>
</g>
<g>
</g>
</svg>
